<mxfile host="app.diagrams.net" modified="2023-09-18T07:43:14.550Z" agent="Mozilla/5.0 (Windows NT 10.0; Win64; x64; rv:109.0) Gecko/20100101 Firefox/117.0" etag="1qvIjGco1hFTUYGsp4Pg" version="21.7.5" type="github">
  <diagram name="Page-1" id="b520641d-4fe3-3701-9064-5fc419738815">
    <mxGraphModel dx="1050" dy="566" grid="1" gridSize="10" guides="1" tooltips="1" connect="1" arrows="1" fold="1" page="1" pageScale="1" pageWidth="1100" pageHeight="850" background="none" math="0" shadow="0">
      <root>
        <mxCell id="0" />
        <mxCell id="1" parent="0" />
        <mxCell id="GX3QY9T3Jm03ZNNtqb58-1" value="Email Blocker" style="ellipse;whiteSpace=wrap;html=1;aspect=fixed;fillColor=none;fontSize=14;" vertex="1" parent="1">
          <mxGeometry x="430" y="178" width="100" height="100" as="geometry" />
        </mxCell>
        <mxCell id="GX3QY9T3Jm03ZNNtqb58-2" value="" style="curved=1;endArrow=classic;html=1;rounded=0;fontSize=14;exitX=0.98;exitY=0.27;exitDx=0;exitDy=0;entryX=0;entryY=0.367;entryDx=0;entryDy=0;entryPerimeter=0;exitPerimeter=0;" edge="1" parent="1" source="GX3QY9T3Jm03ZNNtqb58-1" target="GX3QY9T3Jm03ZNNtqb58-4">
          <mxGeometry width="50" height="50" relative="1" as="geometry">
            <mxPoint x="580" y="180" as="sourcePoint" />
            <mxPoint x="690" y="150" as="targetPoint" />
            <Array as="points">
              <mxPoint x="590" y="160" />
            </Array>
          </mxGeometry>
        </mxCell>
        <mxCell id="GX3QY9T3Jm03ZNNtqb58-3" value="" style="curved=1;endArrow=classic;html=1;rounded=0;fontSize=14;entryX=0.988;entryY=0.389;entryDx=0;entryDy=0;entryPerimeter=0;exitX=0;exitY=0.75;exitDx=0;exitDy=0;" edge="1" parent="1" source="GX3QY9T3Jm03ZNNtqb58-4" target="GX3QY9T3Jm03ZNNtqb58-1">
          <mxGeometry width="50" height="50" relative="1" as="geometry">
            <mxPoint x="690" y="180" as="sourcePoint" />
            <mxPoint x="530" y="210" as="targetPoint" />
            <Array as="points">
              <mxPoint x="640" y="240" />
            </Array>
          </mxGeometry>
        </mxCell>
        <mxCell id="GX3QY9T3Jm03ZNNtqb58-4" value="Gmail API" style="rounded=0;whiteSpace=wrap;html=1;fontSize=14;fillColor=none;" vertex="1" parent="1">
          <mxGeometry x="740" y="150" width="120" height="60" as="geometry" />
        </mxCell>
        <mxCell id="GX3QY9T3Jm03ZNNtqb58-5" value="" style="curved=1;endArrow=classic;html=1;rounded=0;fontSize=14;exitX=0.02;exitY=0.34;exitDx=0;exitDy=0;exitPerimeter=0;entryX=1;entryY=0.5;entryDx=0;entryDy=0;" edge="1" parent="1" source="GX3QY9T3Jm03ZNNtqb58-1" target="GX3QY9T3Jm03ZNNtqb58-7">
          <mxGeometry width="50" height="50" relative="1" as="geometry">
            <mxPoint x="424.64" y="182.01999999999998" as="sourcePoint" />
            <mxPoint x="270" y="214" as="targetPoint" />
            <Array as="points">
              <mxPoint x="350" y="180" />
            </Array>
          </mxGeometry>
        </mxCell>
        <mxCell id="GX3QY9T3Jm03ZNNtqb58-6" value="" style="curved=1;endArrow=classic;html=1;rounded=0;fontSize=14;entryX=0;entryY=0.5;entryDx=0;entryDy=0;exitX=1;exitY=0.75;exitDx=0;exitDy=0;" edge="1" parent="1" source="GX3QY9T3Jm03ZNNtqb58-7" target="GX3QY9T3Jm03ZNNtqb58-1">
          <mxGeometry width="50" height="50" relative="1" as="geometry">
            <mxPoint x="270" y="230" as="sourcePoint" />
            <mxPoint x="361.2" y="235" as="targetPoint" />
            <Array as="points">
              <mxPoint x="310" y="270" />
            </Array>
          </mxGeometry>
        </mxCell>
        <mxCell id="GX3QY9T3Jm03ZNNtqb58-7" value="End User" style="rounded=0;whiteSpace=wrap;html=1;fontSize=14;fillColor=none;" vertex="1" parent="1">
          <mxGeometry x="90" y="190" width="120" height="60" as="geometry" />
        </mxCell>
        <mxCell id="GX3QY9T3Jm03ZNNtqb58-8" value="Email Operations" style="text;html=1;strokeColor=none;fillColor=none;align=center;verticalAlign=middle;whiteSpace=wrap;rounded=0;fontSize=14;" vertex="1" parent="1">
          <mxGeometry x="540" y="220" width="190" height="30" as="geometry" />
        </mxCell>
        <mxCell id="GX3QY9T3Jm03ZNNtqb58-9" value="Email Selection" style="text;html=1;strokeColor=none;fillColor=none;align=center;verticalAlign=middle;whiteSpace=wrap;rounded=0;fontSize=14;" vertex="1" parent="1">
          <mxGeometry x="230" y="250" width="190" height="30" as="geometry" />
        </mxCell>
        <mxCell id="GX3QY9T3Jm03ZNNtqb58-10" value="Authorization" style="text;html=1;strokeColor=none;fillColor=none;align=center;verticalAlign=middle;whiteSpace=wrap;rounded=0;fontSize=14;" vertex="1" parent="1">
          <mxGeometry x="539" y="140" width="190" height="30" as="geometry" />
        </mxCell>
        <mxCell id="GX3QY9T3Jm03ZNNtqb58-11" value="Email Operation Response" style="text;html=1;strokeColor=none;fillColor=none;align=center;verticalAlign=middle;whiteSpace=wrap;rounded=0;fontSize=14;" vertex="1" parent="1">
          <mxGeometry x="220" y="170" width="190" height="30" as="geometry" />
        </mxCell>
        <mxCell id="GX3QY9T3Jm03ZNNtqb58-12" value="0" style="text;html=1;strokeColor=none;fillColor=none;align=center;verticalAlign=middle;whiteSpace=wrap;rounded=0;fontSize=16;" vertex="1" parent="1">
          <mxGeometry x="450" y="240" width="60" height="30" as="geometry" />
        </mxCell>
      </root>
    </mxGraphModel>
  </diagram>
</mxfile>
